<svg id="Capa_1" data-name="Capa 1" xmlns="http://www.w3.org/2000/svg" viewBox="0 0 655.25 116.2"><title>logo-destinare-negro</title><path d="M126.9,100.1,96.6,76.7a3,3,0,0,0-3.6,0L63.1,100.6a2.81,2.81,0,0,0,0,4.5l29.5,23.4a3,3,0,0,0,3.6,0L127,104.6A2.87,2.87,0,0,0,126.9,100.1Z" transform="translate(-21.25 -12.9)"/><path d="M93,13.5,22.3,69.9a2.94,2.94,0,0,0,0,4.5l18,13.9a2.85,2.85,0,0,0,3.5,0L93,49.1a2.85,2.85,0,0,1,3.5,0l50,38.6a2.85,2.85,0,0,0,3.5,0l18.1-14.4a2.94,2.94,0,0,0,0-4.5L96.5,13.5A2.85,2.85,0,0,0,93,13.5Z" transform="translate(-21.25 -12.9)"/><path d="M224.7,62.3H198.6v4.1l7.4.8c.1,7.5.2,15,.2,22.4v3.2c0,8.1,0,15.7-.1,23.1l-7.4.8v4.1h24.5c18.2,0,32.6-10.6,32.6-29.3C255.6,73,242.5,62.3,224.7,62.3Zm-1.9,53.9h-5.1c-.2-7.6-.1-40.9,0-48.4h5.5c11.5,0,19.4,7.6,19.4,23.7C242.6,107.2,234.7,116.2,222.8,116.2Z" transform="translate(-21.25 -12.9)"/><path d="M285.2,115c-7.4,0-12.7-5-13.1-15.1H299a16.52,16.52,0,0,0,.6-4.8c0-10.7-6.9-17.8-17.3-17.8-11.2,0-21.4,8.5-21.4,22.6,0,13.8,12.1,22.1,23,22.1,7.4,0,15.8-3.2,17.1-6v-5.7C298,113.6,290.4,115,285.2,115Zm-3.5-32.6c4.4,0,8,3.2,8,8.6,0,3.2-1.3,3-5.6,3H273.5C274.2,83.6,277.5,82.4,281.7,82.4Z" transform="translate(-21.25 -12.9)"/><path d="M327.3,95.1,323.8,94c-4.4-2-5.7-3.6-5.7-6.8,0-3.4,2.2-5.5,6.9-5.5a12.4,12.4,0,0,1,5.2,1.1l1.6,7.4h5.5l.5-9.3a29.54,29.54,0,0,0-14.1-3.6c-10.9,0-16.8,6.1-16.8,13.4,0,6.3,4,10.3,10.7,12.5l4.4,1.4c5.7,1.9,6.3,4,6.3,7.3,0,2.7-1.8,5.2-7.7,5.2-2.6,0-4.8-1.1-6.9-2l-1.3-7.1h-5.9l.1,11c4.5,2.5,8.9,3,14.2,3,11.9,0,18.5-5.7,18.5-13.6C339.3,102.4,335.9,98,327.3,95.1Z" transform="translate(-21.25 -12.9)"/><path d="M372,113.6c-2,1.5-5,1.4-6.8,1.4-2.8,0-5-.7-5-5.1V85.4h12.7V79.7H360.3l.3-10.7h-7.1l-3.4,9.4L343,82.3v3.1h6.5v17.3c0,3.4-.1,5.6-.1,8.2,0,7.8,4.2,11.1,11.3,11.1,5.4,0,9.2-1.5,11.5-5.2Z" transform="translate(-21.25 -12.9)"/><path d="M386.1,71.1c3.7,0,6.7-2.6,6.7-6.3s-2.9-6.3-6.7-6.3-6.7,2.6-6.7,6.3A6.43,6.43,0,0,0,386.1,71.1Z" transform="translate(-21.25 -12.9)"/><path d="M391.6,116.1c-.1-4.4-.1-10-.1-13.8V90.6l.3-12.4-1.4-.9-15.9,5.6v3.3l6.3.8c.2,3.5.3,6.3.3,11.1v4.2c0,3.8,0,9.4-.1,13.8l-5.8,1.1v3.6H397v-3.6Z" transform="translate(-21.25 -12.9)"/><path d="M444.6,116.1c-.1-4.3-.1-9.9-.1-13.8V93.1c0-10.9-4.4-15.7-12-15.7-4.3,0-9.1,1.5-14,5.2l-.6-4.3-1.4-.9L401.7,83v3.3l6.2.8c.2,3.5.3,5.8.3,10.7v4.6c0,3.8,0,9.4-.1,13.8l-5.7,1.1v3.6h21.7v-3.6l-5.2-1.1c-.1-4.4-.1-10-.1-13.8V89.1c2.1-2.6,4.9-3.3,8-3.3,4.4,0,6.7,3.7,6.7,8.1v8.4c0,3.9,0,9.5-.1,13.8l-4.2,1.1v3.6h20.9v-3.6Z" transform="translate(-21.25 -12.9)"/><path d="M496.5,116.3s-3.2.1-4.4.1c-1.6,0-2.6-1.1-2.6-4V93.3c0-11.5-4.4-15.9-14.7-15.9C464,77.4,457.2,82,456.1,89c.7,5.1,11.5,2,11.5,2V82a26.16,26.16,0,0,1,3.7-.3c5.7,0,7.7,2.2,7.7,10.4v2.5c-3,.8-6.1,1.7-8.4,2.4-12.7,4.1-15.8,8.3-15.8,13.9,0,7.3,5.1,11.2,11.7,11.2,5.6,0,8.5-2.3,12.8-6.8,1,4.1,4.1,6.6,8.7,6.6a40.75,40.75,0,0,0,8.8-1.2ZM472,115c-3.5,0-6.4-1.7-6.4-6.3,0-3.4,1.3-6.2,7.3-8.6,1.5-.6,3.8-1.4,6.2-2.1v14C475.3,114.7,474.3,115,472,115Z" transform="translate(-21.25 -12.9)"/><path d="M516.5,115.8l7.2,1.4v3.6H500v-3.6l5.6-1.1c.1-4.4.1-10,.1-13.8V97.6c0-4.9-.1-7.1-.3-10.6l-6.2-.8V82.9L514,77.3l2.9,1.1-.1,8s8-8.3,11.3-8.9c2.3-.3,5.1,2,5.1,2v12H528s-1-3.5-5.7-3.5-5.6,3.5-5.6,3.5S516.4,111.5,516.5,115.8Z" transform="translate(-21.25 -12.9)"/><path d="M561.1,115c-7.4,0-12.7-5-13.1-15.1h26.9a16.52,16.52,0,0,0,.6-4.8c0-10.7-6.9-17.8-17.3-17.8-11.2,0-21.4,8.5-21.4,22.6,0,13.8,8.4,22.1,20.8,22.1,8.3,0,16.4-3,18.6-6.2l.1-5.7C573.3,113.3,566.3,115,561.1,115Zm-3.6-33.4c4.4,0,7.9,3.7,7.9,9.1,0,3.2-1,3.2-5.3,3.2h-12C548.7,83.5,553.2,81.6,557.5,81.6Z" transform="translate(-21.25 -12.9)"/><path d="M584.4,115a7.1,7.1,0,1,1,14.2,0,7.1,7.1,0,0,1-14.2,0Z" transform="translate(-21.25 -12.9)"/><path d="M617.4,71.2c3.7,0,6.7-2.6,6.7-6.3s-2.9-6.3-6.7-6.3-6.7,2.6-6.7,6.3A6.43,6.43,0,0,0,617.4,71.2Z" transform="translate(-21.25 -12.9)"/><path d="M622.9,116.1c-.1-4.4-.1-10-.1-13.8V90.6l.3-12.4-1.4-.9-15.9,5.6v3.3l6.2.8c.2,3.5.3,6.3.3,11.1v4.2c0,3.8,0,9.4-.1,13.8l-5.8,1.1v3.6h21.8v-3.6Z" transform="translate(-21.25 -12.9)"/><path d="M633.9,99.7c0-14.1,9.9-22.4,21.3-22.4s21.3,8.2,21.3,22.4-9.4,22.4-21.3,22.4S633.9,113.8,633.9,99.7Zm31.1.1c0-11.7-3.5-17.5-9.8-17.5s-9.8,5.8-9.8,17.5,3.4,17.3,9.8,17.3S665,111.5,665,99.8Z" transform="translate(-21.25 -12.9)"/></svg>