<?xml version="1.0" encoding="utf-8"?>
<!-- Generator: Adobe Illustrator 22.0.1, SVG Export Plug-In . SVG Version: 6.00 Build 0)  -->
<svg version="1.1" id="Capa_1" xmlns="http://www.w3.org/2000/svg" xmlns:xlink="http://www.w3.org/1999/xlink" x="0px" y="0px"
	 viewBox="0 0 666.1 125" style="enable-background:new 0 0 666.1 125;" xml:space="preserve">
<style type="text/css">
	.st0{fill:#F9A24F;}
	.st1{fill:#4D4D4D;}
</style>
<g>
	<path class="st0" d="M109.9,92.1L79.6,68.7c-1.1-0.8-2.5-0.8-3.6,0L46.1,92.6c-1.5,1.2-1.5,3.4,0,4.5l29.5,23.4
		c1,0.8,2.5,0.8,3.6,0L110,96.6C111.4,95.5,111.4,93.3,109.9,92.1z"/>
	<path class="st0" d="M76,5.5L5.3,61.9c-1.4,1.1-1.4,3.3,0,4.5l18,13.9c1,0.8,2.5,0.8,3.5,0L76,41.1c1-0.8,2.5-0.8,3.5,0l50,38.6
		c1,0.8,2.5,0.8,3.5,0l18.1-14.4c1.4-1.1,1.4-3.3,0-4.5L79.5,5.5C78.4,4.7,77,4.7,76,5.5z"/>
</g>
<g>
	<path class="st1" d="M207.7,54.3h-6.8h-6h-6h-7.3v4.1l7.4,0.8c0.1,7.5,0.2,15,0.2,22.4v3.2c0,8.1,0,15.7-0.1,23.1l-7.4,0.8v4.1h7.3
		h6h6h5.2c18.2,0,32.6-10.6,32.6-29.3C238.6,65,225.5,54.3,207.7,54.3z M205.8,108.2h-5.1c-0.2-7.6-0.1-40.9,0-48.4h5.5
		c11.5,0,19.4,7.6,19.4,23.7C225.6,99.2,217.7,108.2,205.8,108.2z"/>
	<path class="st1" d="M268.2,107c-7.4,0-12.7-5-13.1-15.1H282c0.4-1.3,0.6-2.9,0.6-4.8c0-10.7-6.9-17.8-17.3-17.8
		c-11.2,0-21.4,8.5-21.4,22.6c0,13.8,12.1,22.1,23,22.1c7.4,0,15.8-3.2,17.1-6v-5.7C281,105.6,273.4,107,268.2,107z M264.7,74.4
		c4.4,0,8,3.2,8,8.6c0,3.2-1.3,3-5.6,3h-10.6C257.2,75.6,260.5,74.4,264.7,74.4z"/>
	<path class="st1" d="M310.3,87.1l-3.5-1.1c-4.4-2-5.7-3.6-5.7-6.8c0-3.4,2.2-5.5,6.9-5.5c2.1,0,3.5,0.4,5.2,1.1l1.6,7.4h5.5
		l0.5-9.3c-4.2-2.3-9.1-3.6-14.1-3.6c-10.9,0-16.8,6.1-16.8,13.4c0,6.3,4,10.3,10.7,12.5l4.4,1.4c5.7,1.9,6.3,4,6.3,7.3
		c0,2.7-1.8,5.2-7.7,5.2c-2.6,0-4.8-1.1-6.9-2l-1.3-7.1h-5.9l0.1,11c4.5,2.5,8.9,3,14.2,3c11.9,0,18.5-5.7,18.5-13.6
		C322.3,94.4,318.9,90,310.3,87.1z"/>
	<path class="st1" d="M355,105.6c-2,1.5-5,1.4-6.8,1.4c-2.8,0-5-0.7-5-5.1V77.4h12.7v-5.7h-12.6l0.3-10.7h-7.1l-3.4,9.4l-7.1,3.9
		v3.1h6.5v17.3c0,3.4-0.1,5.6-0.1,8.2c0,7.8,4.2,11.1,11.3,11.1c5.4,0,9.2-1.5,11.5-5.2L355,105.6z"/>
	<g>
		<path class="st1" d="M369.1,63.1c3.7,0,6.7-2.6,6.7-6.3c0-3.7-2.9-6.3-6.7-6.3s-6.7,2.6-6.7,6.3C362.4,60.4,365.4,63.1,369.1,63.1
			z"/>
		<path class="st1" d="M374.6,108.1c-0.1-4.4-0.1-10-0.1-13.8V82.6l0.3-12.4l-1.4-0.9l-15.9,5.6v3.3l6.3,0.8
			c0.2,3.5,0.3,6.3,0.3,11.1v4.2c0,3.8,0,9.4-0.1,13.8l-5.8,1.1v3.6h5.6h11h5.2v-3.6L374.6,108.1z"/>
	</g>
	<path class="st1" d="M427.6,108.1c-0.1-4.3-0.1-9.9-0.1-13.8v-9.2c0-10.9-4.4-15.7-12-15.7c-4.3,0-9.1,1.5-14,5.2l-0.6-4.3
		l-1.4-0.9L384.7,75v3.3l6.2,0.8c0.2,3.5,0.3,5.8,0.3,10.7v4.6c0,3.8,0,9.4-0.1,13.8l-5.7,1.1v3.6h5.6h11h5.1v-3.6l-5.2-1.1
		c-0.1-4.4-0.1-10-0.1-13.8V81.1c2.1-2.6,4.9-3.3,8-3.3c4.4,0,6.7,3.7,6.7,8.1v8.4c0,3.9,0,9.5-0.1,13.8l-4.2,1.1v3.6h5.5h11.1h4.3
		v-3.6L427.6,108.1z"/>
	<path class="st1" d="M479.5,108.3c0,0-3.2,0.1-4.4,0.1c-1.6,0-2.6-1.1-2.6-4V85.3c0-11.5-4.4-15.9-14.7-15.9
		c-10.8,0-17.6,4.6-18.7,11.6c0.7,5.1,11.5,2,11.5,2v-9c1.4-0.2,2.6-0.3,3.7-0.3c5.7,0,7.7,2.2,7.7,10.4v2.5c-3,0.8-6.1,1.7-8.4,2.4
		c-12.7,4.1-15.8,8.3-15.8,13.9c0,7.3,5.1,11.2,11.7,11.2c5.6,0,8.5-2.3,12.8-6.8c1,4.1,4.1,6.6,8.7,6.6c4.2,0,8.8-1.2,8.8-1.2
		L479.5,108.3z M455,107c-3.5,0-6.4-1.7-6.4-6.3c0-3.4,1.3-6.2,7.3-8.6c1.5-0.6,3.8-1.4,6.2-2.1v14C458.3,106.7,457.3,107,455,107z"
		/>
	<path class="st1" d="M499.5,107.8l7.2,1.4v3.6h-7h-11.1H483v-3.6l5.6-1.1c0.1-4.4,0.1-10,0.1-13.8v-4.7c0-4.9-0.1-7.1-0.3-10.6
		l-6.2-0.8v-3.3l14.8-5.6l2.9,1.1l-0.1,8c0,0,8-8.3,11.3-8.9c2.3-0.3,5.1,2,5.1,2v12H511c0,0-1-3.5-5.7-3.5s-5.6,3.5-5.6,3.5
		S499.4,103.5,499.5,107.8z"/>
	<path class="st1" d="M544.1,107c-7.4,0-12.7-5-13.1-15.1h26.9c0.4-1.3,0.6-2.9,0.6-4.8c0-10.7-6.9-17.8-17.3-17.8
		c-11.2,0-21.4,8.5-21.4,22.6c0,13.8,8.4,22.1,20.8,22.1c8.3,0,16.4-3,18.6-6.2l0.1-5.7C556.3,105.3,549.3,107,544.1,107z
		 M540.5,73.6c4.4,0,7.9,3.7,7.9,9.1c0,3.2-1,3.2-5.3,3.2h-12C531.7,75.5,536.2,73.6,540.5,73.6z"/>
	<path class="st1" d="M567.4,107c0-3.9,3.1-7.2,7.1-7.2s7.1,3.2,7.1,7.2c0,3.8-3.1,7-7.1,7S567.4,110.9,567.4,107z"/>
	<g>
		<path class="st1" d="M600.4,63.2c3.7,0,6.7-2.6,6.7-6.3c0-3.7-2.9-6.3-6.7-6.3s-6.7,2.6-6.7,6.3C593.8,60.6,596.7,63.2,600.4,63.2
			z"/>
		<path class="st1" d="M605.9,108.1c-0.1-4.4-0.1-10-0.1-13.8V82.6l0.3-12.4l-1.4-0.9l-15.9,5.6v3.3L595,79
			c0.2,3.5,0.3,6.3,0.3,11.1v4.2c0,3.8,0,9.4-0.1,13.8l-5.8,1.1v3.6h5.6h11h5.2v-3.6L605.9,108.1z"/>
	</g>
	<path class="st1" d="M616.9,91.7c0-14.1,9.9-22.4,21.3-22.4c11.3,0,21.3,8.2,21.3,22.4s-9.4,22.4-21.3,22.4
		C626.2,114,616.9,105.8,616.9,91.7z M648,91.8c0-11.7-3.5-17.5-9.8-17.5c-6.4,0-9.8,5.8-9.8,17.5s3.4,17.3,9.8,17.3
		C644.5,109.1,648,103.5,648,91.8z"/>
</g>
<text transform="matrix(1 0 0 1 -193 -207.7244)"><tspan x="0" y="0" style="font-family:'MyriadPro-Regular'; font-size:12px;">#f9a24f</tspan><tspan x="0" y="28.8" style="font-family:'MyriadPro-Regular'; font-size:12px;">#ffce50</tspan></text>
</svg>
