<?xml version="1.0" encoding="utf-8"?>
<!-- Generator: Adobe Illustrator 26.0.0, SVG Export Plug-In . SVG Version: 6.00 Build 0)  -->
<svg version="1.1" id="Capa_1" xmlns="http://www.w3.org/2000/svg" xmlns:xlink="http://www.w3.org/1999/xlink" x="0px" y="0px"
	 viewBox="0 0 697.4 141.7" style="enable-background:new 0 0 697.4 141.7;" xml:space="preserve">
<style type="text/css">
	.st0{fill:#FFFFFF;}
</style>
<path class="st0" d="M126.9,100.1L96.6,76.7c-1.1-0.8-2.5-0.8-3.6,0l-29.9,23.9c-1.5,1.2-1.5,3.4,0,4.5l29.5,23.4
	c1,0.8,2.5,0.8,3.6,0l30.8-23.9C128.4,103.5,128.4,101.3,126.9,100.1z"/>
<path class="st0" d="M93,13.5L22.3,69.9c-1.4,1.1-1.4,3.3,0,4.5l18,13.9c1,0.8,2.5,0.8,3.5,0L93,49.1c1-0.8,2.5-0.8,3.5,0l50,38.6
	c1,0.8,2.5,0.8,3.5,0l18.1-14.4c1.4-1.1,1.4-3.3,0-4.5L96.5,13.5C95.4,12.7,94,12.7,93,13.5z"/>
<path class="st0" d="M224.7,62.3h-6.8h-6h-6h-7.3v4.1l7.4,0.8c0.1,7.5,0.2,15,0.2,22.4v3.2c0,8.1,0,15.7-0.1,23.1l-7.4,0.8v4.1h7.3
	h6h6h5.2c18.2,0,32.6-10.6,32.6-29.3C255.6,73,242.5,62.3,224.7,62.3z M222.8,116.2h-5.1c-0.2-7.6-0.1-40.9,0-48.4h5.5
	c11.5,0,19.4,7.6,19.4,23.7C242.6,107.2,234.7,116.2,222.8,116.2z"/>
<path class="st0" d="M285.2,115c-7.4,0-12.7-5-13.1-15.1H299c0.4-1.3,0.6-2.9,0.6-4.8c0-10.7-6.9-17.8-17.3-17.8
	c-11.2,0-21.4,8.5-21.4,22.6c0,13.8,12.1,22.1,23,22.1c7.4,0,15.8-3.2,17.1-6v-5.7C298,113.6,290.4,115,285.2,115z M281.7,82.4
	c4.4,0,8,3.2,8,8.6c0,3.2-1.3,3-5.6,3h-10.6C274.2,83.6,277.5,82.4,281.7,82.4z"/>
<path class="st0" d="M327.3,95.1l-3.5-1.1c-4.4-2-5.7-3.6-5.7-6.8c0-3.4,2.2-5.5,6.9-5.5c2.1,0,3.5,0.4,5.2,1.1l1.6,7.4h5.5l0.5-9.3
	c-4.2-2.3-9.1-3.6-14.1-3.6c-10.9,0-16.8,6.1-16.8,13.4c0,6.3,4,10.3,10.7,12.5l4.4,1.4c5.7,1.9,6.3,4,6.3,7.3
	c0,2.7-1.8,5.2-7.7,5.2c-2.6,0-4.8-1.1-6.9-2l-1.3-7.1h-5.9l0.1,11c4.5,2.5,8.9,3,14.2,3c11.9,0,18.5-5.7,18.5-13.6
	C339.3,102.4,335.9,98,327.3,95.1z"/>
<path class="st0" d="M372,113.6c-2,1.5-5,1.4-6.8,1.4c-2.8,0-5-0.7-5-5.1V85.4h12.7v-5.7h-12.6l0.3-10.7h-7.1l-3.4,9.4l-7.1,3.9v3.1
	h6.5v17.3c0,3.4-0.1,5.6-0.1,8.2c0,7.8,4.2,11.1,11.3,11.1c5.4,0,9.2-1.5,11.5-5.2L372,113.6z"/>
<g>
	<path class="st0" d="M386.1,71.1c3.7,0,6.7-2.6,6.7-6.3c0-3.7-2.9-6.3-6.7-6.3s-6.7,2.6-6.7,6.3C379.4,68.4,382.4,71.1,386.1,71.1z
		"/>
	<path class="st0" d="M391.6,116.1c-0.1-4.4-0.1-10-0.1-13.8V90.6l0.3-12.4l-1.4-0.9l-15.9,5.6v3.3l6.3,0.8
		c0.2,3.5,0.3,6.3,0.3,11.1v4.2c0,3.8,0,9.4-0.1,13.8l-5.8,1.1v3.6h5.6h11h5.2v-3.6L391.6,116.1z"/>
</g>
<path class="st0" d="M444.6,116.1c-0.1-4.3-0.1-9.9-0.1-13.8v-9.2c0-10.9-4.4-15.7-12-15.7c-4.3,0-9.1,1.5-14,5.2l-0.6-4.3l-1.4-0.9
	l-14.8,5.6v3.3l6.2,0.8c0.2,3.5,0.3,5.8,0.3,10.7v4.6c0,3.8,0,9.4-0.1,13.8l-5.7,1.1v3.6h5.6H419h5.1v-3.6l-5.2-1.1
	c-0.1-4.4-0.1-10-0.1-13.8V89.1c2.1-2.6,4.9-3.3,8-3.3c4.4,0,6.7,3.7,6.7,8.1v8.4c0,3.9,0,9.5-0.1,13.8l-4.2,1.1v3.6h5.5h11.1h4.3
	v-3.6L444.6,116.1z"/>
<path class="st0" d="M496.5,116.3c0,0-3.2,0.1-4.4,0.1c-1.6,0-2.6-1.1-2.6-4V93.3c0-11.5-4.4-15.9-14.7-15.9
	c-10.8,0-17.6,4.6-18.7,11.6c0.7,5.1,11.5,2,11.5,2l0-9c1.4-0.2,2.6-0.3,3.7-0.3c5.7,0,7.7,2.2,7.7,10.4v2.5c-3,0.8-6.1,1.7-8.4,2.4
	c-12.7,4.1-15.8,8.3-15.8,13.9c0,7.3,5.1,11.2,11.7,11.2c5.6,0,8.5-2.3,12.8-6.8c1,4.1,4.1,6.6,8.7,6.6c4.2,0,8.8-1.2,8.8-1.2
	L496.5,116.3z M472,115c-3.5,0-6.4-1.7-6.4-6.3c0-3.4,1.3-6.2,7.3-8.6c1.5-0.6,3.8-1.4,6.2-2.1V112C475.3,114.7,474.3,115,472,115z"
	/>
<path class="st0" d="M516.5,115.8l7.2,1.4v3.6h-7h-11.1H500v-3.6l5.6-1.1c0.1-4.4,0.1-10,0.1-13.8v-4.7c0-4.9-0.1-7.1-0.3-10.6
	l-6.2-0.8v-3.3l14.8-5.6l2.9,1.1l-0.1,8c0,0,8-8.3,11.3-8.9c2.3-0.3,5.1,2,5.1,2v12H528c0,0-1-3.5-5.7-3.5c-4.7,0-5.6,3.5-5.6,3.5
	S516.4,111.5,516.5,115.8z"/>
<path class="st0" d="M561.1,115c-7.4,0-12.7-5-13.1-15.1h26.9c0.4-1.3,0.6-2.9,0.6-4.8c0-10.7-6.9-17.8-17.3-17.8
	c-11.2,0-21.4,8.5-21.4,22.6c0,13.8,8.4,22.1,20.8,22.1c8.3,0,16.4-3,18.6-6.2l0.1-5.7C573.3,113.3,566.3,115,561.1,115z
	 M557.5,81.6c4.4,0,7.9,3.7,7.9,9.1c0,3.2-1,3.2-5.3,3.2h-12C548.7,83.5,553.2,81.6,557.5,81.6z"/>
<path class="st0" d="M584.4,115c0-3.9,3.1-7.2,7.1-7.2s7.1,3.2,7.1,7.2c0,3.8-3.1,7-7.1,7S584.4,118.9,584.4,115z"/>
<g>
	<path class="st0" d="M617.4,71.2c3.7,0,6.7-2.6,6.7-6.3c0-3.7-2.9-6.3-6.7-6.3s-6.7,2.6-6.7,6.3C610.8,68.6,613.7,71.2,617.4,71.2z
		"/>
	<path class="st0" d="M622.9,116.1c-0.1-4.4-0.1-10-0.1-13.8V90.6l0.3-12.4l-1.4-0.9l-15.9,5.6v3.3L612,87c0.2,3.5,0.3,6.3,0.3,11.1
		v4.2c0,3.8,0,9.4-0.1,13.8l-5.8,1.1v3.6h5.6h11h5.2v-3.6L622.9,116.1z"/>
</g>
<path class="st0" d="M633.9,99.7c0-14.1,9.9-22.4,21.3-22.4c11.3,0,21.3,8.2,21.3,22.4c0,14.2-9.4,22.4-21.3,22.4
	C643.2,122,633.9,113.8,633.9,99.7z M665,99.8c0-11.7-3.5-17.5-9.8-17.5c-6.4,0-9.8,5.8-9.8,17.5c0,11.7,3.4,17.3,9.8,17.3
	C661.5,117.1,665,111.5,665,99.8z"/>
</svg>
