<svg id="Capa_1" data-name="Capa 1" xmlns="http://www.w3.org/2000/svg" viewBox="0 0 80.17 80.12"><path d="M30,86.33c-4.17,0-8.34,0-12.51,0-1.86,0-2.21-.55-1.53-2.32a9.88,9.88,0,0,0-.36-8.17c-2.86-6-5.79-12-8.47-18.1a16.19,16.19,0,0,1-1.37-6.16C5.59,42.05,5.63,32.5,5.68,23a5.82,5.82,0,0,1,8.72-5.21c1.54.88,2.07,2.5,3,3.83s2.79,1.79,3.75,3a6.65,6.65,0,0,1,.88,3.7c.1,4.32.06,8.65,0,13a1.64,1.64,0,0,0,1.16,1.87,7.13,7.13,0,0,1,2.26,1.62c4.56,4.51,9.08,9.06,13.62,13.59a17.54,17.54,0,0,1,5.4,13c0,4.22,0,8.44,0,12.67,0,2.16-.1,2.25-2.34,2.25C38.1,86.34,34,86.33,30,86.33Zm12.24-2.47c0-4.26,0-8.42,0-12.58a15.23,15.23,0,0,0-4.6-11.09q-6.85-6.84-13.71-13.71a9.22,9.22,0,0,0-.79-.74,3.51,3.51,0,0,0-4.22-.11,3.42,3.42,0,0,0-1.24,4,5.82,5.82,0,0,0,1.26,1.75c3,3,6,6,9,9a7.57,7.57,0,0,1,2.52,5.53c0,.55-.64,1.09-1,1.64-.42-.48-1.12-.91-1.21-1.45a7.65,7.65,0,0,0-2.25-4.35C23,58.86,20.11,55.91,17.17,53A6.78,6.78,0,0,1,15,47.87c0-8,0-15.95,0-23.92A10.13,10.13,0,0,0,15,22.39a3.54,3.54,0,0,0-3-3,3.39,3.39,0,0,0-3.68,2A6.18,6.18,0,0,0,8,23.55C8,33,8,42.52,8.07,52a11.7,11.7,0,0,0,1,4.5c2.35,5.27,4.83,10.49,7.35,15.68,1.8,3.7,3.46,7.37,2,11.68ZM19.73,42.66c0-5.15,0-10.29,0-15.43a3,3,0,0,0-2.18-2.86V43.52Z" transform="translate(-5.63 -6.23)" style="fill:#fff"/><path d="M85.75,38c0,4.53.14,9.07-.06,13.6a17.36,17.36,0,0,1-1.37,6.16c-2.66,6.05-5.55,12-8.4,18a10,10,0,0,0-.38,8.46c.63,1.56.23,2.17-1.41,2.18-8.5,0-17,0-25.5,0-1.29,0-1.75-.54-1.74-1.79,0-4.59,0-9.18,0-13.77a16.69,16.69,0,0,1,4.95-12c4.74-4.84,9.57-9.6,14.37-14.39a3.47,3.47,0,0,1,1.36-1c1.7-.44,1.78-1.6,1.75-3.07-.09-4,0-8,0-12,0-3.1,1.2-5.3,4.19-6.43a2.12,2.12,0,0,0,.91-1.09,5.86,5.86,0,0,1,11.34,2.32C85.77,28.06,85.75,33,85.75,38ZM72.93,83.87c-1.19-3.86-.14-7.25,1.52-10.62,2.64-5.36,5.21-10.77,7.62-16.25a14.57,14.57,0,0,0,1.26-5.53c.13-9.17.06-18.34.06-27.52a10.83,10.83,0,0,0-.09-1.71,3.22,3.22,0,0,0-2.74-2.82A3.11,3.11,0,0,0,77,21a5.76,5.76,0,0,0-.58,2.53q-.06,12.19,0,24.38a6.64,6.64,0,0,1-2.07,5c-2.93,2.88-5.81,5.83-8.75,8.71a7.57,7.57,0,0,0-2.32,4.48c-.07.5-.73.93-1.12,1.39-.37-.52-1-1-1.07-1.56a7.58,7.58,0,0,1,2.57-5.66c3.06-3,6.13-6.1,9.17-9.18a3.52,3.52,0,1,0-5-4.94q-7.2,7.15-14.36,14.37a12.9,12.9,0,0,0-4,8.44c-.23,4.83-.14,9.68-.18,14.52,0,.09.1.18.19.33Zm1-59.6c-1.39.69-2.17,1.6-2.19,2.86-.07,5.19,0,10.38,0,15.55l2.22.83Z" transform="translate(-5.63 -6.23)" style="fill:#fff"/><path d="M64.61,27.54A18.92,18.92,0,1,0,27,30.4l.06.31c.21.85.17,1.64-.86,1.83s-1.3-.58-1.45-1.42a20.84,20.84,0,0,1,1.41-11.93,21.27,21.27,0,1,1,.63,18.05c-.11-.23-.35-.49-.31-.7a14.07,14.07,0,0,1,.44-1.63,5.45,5.45,0,0,1,1.56.56c.34.24.45.8.68,1.21a18.91,18.91,0,0,0,35.46-9.14Z" transform="translate(-5.63 -6.23)" style="fill:#fff"/><path d="M34.5,37.89c.32-1.91.55-3.88,1-5.8a2.1,2.1,0,0,0-.78-2.3c-1.3-1.19-2.55-2.46-3.8-3.71a3.36,3.36,0,0,1-1-3.7A3.43,3.43,0,0,1,33,20c1.85-.27,3.72-.5,5.55-.88A2.51,2.51,0,0,0,40,18c.87-1.53,1.6-3.15,2.37-4.74a3.6,3.6,0,0,1,6.75.05c.74,1.55,1.44,3.12,2.3,4.6A2.62,2.62,0,0,0,53,19.1c1.82.4,3.69.62,5.54.89a3.42,3.42,0,0,1,3,2.44,3.31,3.31,0,0,1-.9,3.58c-1.36,1.37-2.8,2.66-4.1,4.08a2.45,2.45,0,0,0-.53,1.74c.2,1.8.54,3.6.88,5.38a3.46,3.46,0,0,1-1.27,3.62,3.38,3.38,0,0,1-3.95.29c-1.57-.83-3.17-1.59-4.69-2.49a2.12,2.12,0,0,0-2.43,0,56.08,56.08,0,0,1-5,2.6A3.53,3.53,0,0,1,34.5,37.89Zm2.44-.35c-.08,1.49.64,2,1.93,1.4,1.87-.91,3.65-2,5.56-2.84a3.64,3.64,0,0,1,2.58,0c1.81.76,3.5,1.83,5.28,2.68a2.11,2.11,0,0,0,1.7.14,2,2,0,0,0,.42-1.64,57.6,57.6,0,0,0-1-5.85,2.41,2.41,0,0,1,.87-2.61c1.42-1.3,2.81-2.63,4.13-4a2.35,2.35,0,0,0,.66-1.71c-.08-.37-.93-.73-1.48-.84-2-.36-4-.53-6-1a3.18,3.18,0,0,1-1.82-1.36c-1-1.74-1.8-3.63-2.77-5.41-.27-.48-.86-1.08-1.3-1.07s-1,.61-1.29,1.09c-1,1.83-1.81,3.75-2.83,5.56A2.7,2.7,0,0,1,40,21.27c-1.93.41-3.91.58-5.85.95a8.21,8.21,0,0,0-1.86.86,7.71,7.71,0,0,0,1,1.94c1.27,1.38,2.64,2.66,4,3.94A2.23,2.23,0,0,1,38,31.31C37.57,33.39,37.29,35.51,36.94,37.54Z" transform="translate(-5.63 -6.23)" style="fill:#fff"/></svg>