<svg id="Capa_1" data-name="Capa 1" xmlns="http://www.w3.org/2000/svg" viewBox="0 0 553.02 870.41"><path d="M320.86,688.14,562.94,875.75a14.58,14.58,0,0,0,3.82,2.13v-400a14.43,14.43,0,0,0-7.15,2.93L320.88,665.13A14.55,14.55,0,0,0,320.86,688.14Z" transform="translate(-13.74 -7.47)" style="fill:#fff"/><path d="M21.72,458.28,156.83,566a21.21,21.21,0,0,0,26.17.21L557,277.5a21.07,21.07,0,0,1,9.74-4.16V7.47a21,21,0,0,0-9.52,4.14L22,424.93A21.2,21.2,0,0,0,21.72,458.28Z" transform="translate(-13.74 -7.47)" style="fill:#fff"/></svg>