<?xml version="1.0" encoding="utf-8"?>
<!-- Generator: Adobe Illustrator 26.0.1, SVG Export Plug-In . SVG Version: 6.00 Build 0)  -->
<svg version="1.1" id="Capa_1" xmlns="http://www.w3.org/2000/svg" xmlns:xlink="http://www.w3.org/1999/xlink" x="0px" y="0px"
	 viewBox="0 0 1297.6 241.7" style="enable-background:new 0 0 1297.6 241.7;" xml:space="preserve">
<style type="text/css">
	.st0{fill:#FFFFFF;}
	.st1{fill:#F7921F;}
</style>
<g>
	<path class="st0" d="M408.8,103.1c19,0,33.7,4.9,44.2,14.6c10.5,9.7,15.7,23.5,15.7,41.2c0,9.7-1.7,18.4-5.2,26
		c-3.4,7.6-8.5,14-15.3,19.2c-4.7,3.6-10.2,6.3-16.4,8c-6.2,1.7-13.9,2.5-23.1,2.5h-48.5v-8.1l10.1-0.9l2.7-2.6v-88.2l-2.7-2.7
		l-10.1-0.8v-8.2H408.8z M395,112.4v92.8h9.7c13.2,0,23-3.8,29.5-11.5c6.5-7.7,9.7-19.3,9.7-34.9s-3.2-27.3-9.7-34.9
		c-6.5-7.6-16.3-11.5-29.5-11.5H395z"/>
	<path class="st0" d="M556.3,194v12.3c-5.7,3.2-11.4,5.7-17.2,7.3c-5.8,1.6-11.6,2.4-17.4,2.4c-12.4,0-22.4-3.8-29.9-11.4
		c-7.5-7.6-11.3-17.7-11.3-30.3c0-12.6,3.8-22.9,11.5-30.9c7.7-8,17.5-12,29.6-12c10.9,0,19.4,3.3,25.5,9.9
		c6.1,6.6,9.1,15.8,9.1,27.7v3.2h-54.5v0.5c0,9.5,2.4,16.9,7.2,22.3c4.8,5.4,11.3,8.1,19.7,8.1c4.4,0,8.9-0.8,13.4-2.3
		C546.6,199.4,551.4,197.1,556.3,194 M534.4,163.4v-1.8c0-6.8-1.2-11.9-3.7-15.5c-2.5-3.6-6.1-5.4-10.7-5.4c-5.1,0-9.2,2-12.3,6
		c-3.1,4-4.8,9.6-5,16.7H534.4z"/>
	<path class="st0" d="M627.1,135.7v22.2h-10l-1.6-12.5l-2-1.9c-1.8-0.9-3.7-1.5-5.5-1.9c-1.8-0.4-3.7-0.6-5.4-0.6
		c-4,0-7.1,0.9-9.3,2.6c-2.2,1.8-3.3,4.2-3.3,7.3c0,2.6,0.9,4.8,2.6,6.7c1.7,1.9,6,4.5,12.9,7.9l0.3,0.2c16,7.7,23.9,15.5,23.9,23.5
		c0,8.5-3,15.2-9,20.1c-6,4.9-14.3,7.3-24.9,7.3c-4.1,0-8.5-0.4-13-1.1c-4.6-0.7-9.4-1.8-14.4-3.2v-24.6h10l1.9,14.3l1.7,1.9
		c2.2,1.1,4.4,2,6.7,2.6c2.3,0.6,4.7,0.9,7.2,0.9c4.4,0,7.8-1.1,10.3-3.2c2.5-2.1,3.8-5.1,3.8-8.8c0-4.7-4.8-9.2-14.4-13.6
		c-3.2-1.5-5.8-2.7-7.5-3.6c-6.9-3.4-11.7-6.8-14.5-10.1c-2.8-3.3-4.2-7.3-4.2-11.8c0-7.4,3-13.4,8.9-17.9
		c5.9-4.5,13.8-6.8,23.7-6.8c4.2,0,8.4,0.3,12.6,1C618.8,133.2,623,134.2,627.1,135.7"/>
	<path class="st0" d="M649.7,145.8h-10.8v-6.3l12.3-7l8.7-17.3h10.5v20.6h24.6v10h-24.6v41.4c0,6.2,1,10.5,3,12.8
		c2,2.3,5.6,3.4,10.8,3.4c2.1,0,4-0.1,5.7-0.3c1.8-0.2,3.4-0.5,5.1-0.9v7.9c-4.8,1.7-9.3,3-13.6,3.9c-4.3,0.9-8.2,1.3-11.8,1.3
		c-2.9,0-5.5-0.3-7.8-0.9c-2.2-0.6-4.3-1.5-6-2.8c-2.2-1.5-3.8-3.3-4.7-5.5c-0.9-2.2-1.3-6.2-1.3-12.1V145.8z"/>
	<path class="st0" d="M724,132.1h8V204l2.4,2.5l9.3,0.6v7.5h-43.6v-7.5l9-0.6l2.4-2.5v-57.4h-11v-6.7L724,132.1z M722.2,94.3
		c3.6,0,6.6,1.2,8.9,3.4c2.3,2.3,3.5,5.2,3.5,8.7c0,3.7-1.1,6.7-3.4,9c-2.3,2.4-5.2,3.5-8.8,3.5c-3.5,0-6.4-1.2-8.7-3.5
		c-2.3-2.3-3.5-5.2-3.5-8.8c0-3.6,1.1-6.5,3.4-8.9C715.9,95.4,718.8,94.3,722.2,94.3"/>
	<path class="st0" d="M751.1,214.6v-7.5l8.5-0.6l2.4-2.5v-57.4h-11.4v-6.7l23.9-7.8h8v9.8c6.3-3.5,11.8-6.1,16.4-7.7
		c4.6-1.6,8.6-2.4,12-2.4c7.6,0,13.2,2.3,17,6.8c3.7,4.5,5.6,11.5,5.6,20.8V204l2.2,2.5l8.8,0.6v7.5h-40.7v-7.5l7.1-0.6l2.3-2.5
		v-39.8c0-6.2-1.2-10.7-3.6-13.6c-2.4-2.9-6.2-4.3-11.4-4.3c-2,0-4.3,0.2-6.9,0.7c-2.6,0.5-5.6,1.2-8.8,2.1V204l2.3,2.5l7.3,0.6v7.5
		H751.1z"/>
	<path class="st0" d="M903.5,205.1c-5.6,3.8-10.7,6.6-15.3,8.4c-4.6,1.7-9,2.6-13.2,2.6c-6.4,0-11.6-2-15.7-6
		c-4.1-4-6.1-9.2-6.1-15.5c0-7.8,3-13.8,8.9-18c6-4.2,19.8-8.8,41.6-13.7v-4.9c0-6-1.3-10.4-3.8-13.1c-2.5-2.8-6.5-4.1-12-4.1
		c-1.2,0-2.4,0.1-3.7,0.2c-1.3,0.2-2.7,0.4-4.2,0.7v15.6h-15.3c-2.7,0-4.6-0.5-5.8-1.5c-1.2-1-1.8-2.5-1.8-4.6
		c0-5.2,3.5-9.7,10.5-13.6c7-3.8,15.5-5.8,25.7-5.8c11.4,0,19.4,2.2,24.1,6.6c4.6,4.4,7,12,7,22.9v43l2.2,2.4l8.8,0.8v7.3h-29.5
		L903.5,205.1z M903.5,198.3v-27.1c-10.9,2.4-18.4,5.1-22.4,8c-4,2.9-6,6.8-6,11.7c0,3.8,1.1,6.9,3.3,9.1c2.2,2.2,5.2,3.4,9,3.4
		c2.1,0,4.5-0.4,7.2-1.3C897.2,201.2,900.2,200,903.5,198.3"/>
	<path class="st0" d="M941.7,214.6v-7.5l8.8-0.6l2.4-2.5v-57.4h-12v-6.7l24.4-7.8h8l-0.7,17c2.9-3,5.9-6,9.2-8.8
		c3.2-2.8,6.7-5.5,10.2-8.1c0.9-0.2,1.7-0.3,2.2-0.3c0.6-0.1,1.1-0.1,1.5-0.1c1.8,0,3.6,0.2,5.4,0.7c1.8,0.5,3.7,1.2,5.6,2.2
		l-2.1,23h-8.7c-1.2-2.1-2.7-3.6-4.5-4.5c-1.8-1-3.9-1.5-6.3-1.5c-1.4,0-3.1,0.4-5.1,1.2c-2,0.8-4.2,1.9-6.7,3.4V204l2.4,2.5
		l11.8,0.6v7.5H941.7z"/>
	<path class="st0" d="M1088.7,194v12.3c-5.7,3.2-11.4,5.7-17.2,7.3c-5.8,1.6-11.6,2.4-17.4,2.4c-12.4,0-22.4-3.8-29.9-11.4
		c-7.5-7.6-11.3-17.7-11.3-30.3c0-12.6,3.8-22.9,11.5-30.9c7.7-8,17.5-12,29.6-12c10.9,0,19.4,3.3,25.5,9.9
		c6.1,6.6,9.1,15.8,9.1,27.7v3.2h-54.5v0.5c0,9.5,2.4,16.9,7.2,22.3c4.8,5.4,11.3,8.1,19.7,8.1c4.4,0,8.9-0.8,13.4-2.3
		C1079,199.4,1083.8,197.1,1088.7,194 M1066.8,163.4v-1.8c0-6.8-1.2-11.9-3.7-15.5c-2.5-3.6-6.1-5.4-10.7-5.4c-5.1,0-9.2,2-12.3,6
		c-3.1,4-4.8,9.6-5,16.7H1066.8z"/>
	<path class="st0" d="M1117.8,189.5c3.6,0,6.7,1.3,9.4,3.9c2.6,2.6,3.9,5.7,3.9,9.4c0,3.6-1.3,6.7-3.9,9.3c-2.6,2.5-5.7,3.8-9.4,3.8
		c-3.6,0-6.6-1.3-9.2-3.8c-2.5-2.5-3.8-5.6-3.8-9.3c0-3.7,1.3-6.9,3.8-9.5C1111.1,190.8,1114.2,189.5,1117.8,189.5"/>
	<path class="st0" d="M1170.7,132.1h8V204l2.4,2.5l9.3,0.6v7.5h-43.6v-7.5l9-0.6l2.4-2.5v-57.4h-11v-6.7L1170.7,132.1z M1168.9,94.3
		c3.6,0,6.6,1.2,8.9,3.4c2.3,2.3,3.5,5.2,3.5,8.7c0,3.7-1.2,6.7-3.5,9c-2.3,2.4-5.2,3.5-8.8,3.5c-3.5,0-6.4-1.2-8.7-3.5
		c-2.3-2.3-3.5-5.2-3.5-8.8c0-3.6,1.1-6.5,3.4-8.9C1162.6,95.4,1165.5,94.3,1168.9,94.3"/>
	<path class="st0" d="M1241.8,131.7c12.8,0,22.9,3.9,30.4,11.6c7.5,7.7,11.3,18.1,11.3,31.3c0,12.4-3.9,22.4-11.8,30
		c-7.8,7.6-18.3,11.4-31.2,11.4c-12.5,0-22.6-3.8-30.2-11.5c-7.7-7.7-11.5-17.7-11.5-30.2c0-12.8,3.9-23.1,11.8-30.9
		C1218.4,135.6,1228.9,131.7,1241.8,131.7 M1241.2,140.5c-6.1,0-10.8,2.9-14.2,8.7c-3.4,5.8-5.1,13.9-5.1,24.3
		c0,10.6,1.7,18.9,5.1,24.8c3.4,5.9,8.1,8.8,14.1,8.8c6.3,0,11.1-2.9,14.5-8.6c3.4-5.7,5.1-13.9,5.1-24.5c0-10.5-1.7-18.8-5.2-24.7
		C1252.1,143.5,1247.3,140.5,1241.2,140.5"/>
	<path class="st1" d="M14.2,120.2c6.4-5.1,11.4-9.1,16.5-13.1c40.7-31.4,81.4-62.8,122-94.3c3.3-2.6,5.7-3.6,9.6-0.6
		c45.2,35.1,90.6,70.1,135.9,105c3.9,3,4.3,5.2,0,8.3c-10.7,7.9-21.3,15.9-31.6,24.3c-3.8,3-6.2,2.2-9.6-0.4
		c-31.3-24.2-62.9-48.2-94.2-72.6c-4.1-3.2-6.6-3-10.6,0.1c-30.9,24-62.1,47.8-93.1,71.8c-3.8,2.9-6.3,3.2-10.1,0
		C38.1,139.4,26.7,130.4,14.2,120.2"/>
	<path class="st1" d="M158.3,232.4c-1.4-0.9-2.8-1.5-4-2.4c-20.1-15.6-40.1-31.4-60.4-46.8c-4.9-3.7-3.5-5.8,0.4-8.7
		c19.4-14.8,38.7-29.7,57.9-44.7c3.2-2.5,5.6-3.3,9.1-0.5c19.7,15.4,39.5,30.8,59.4,45.9c4.5,3.4,5,5.5,0.2,9.2
		c-19.7,15.1-39.2,30.4-58.8,45.6C161.1,230.9,159.7,231.5,158.3,232.4"/>
</g>
</svg>
