<svg id="Capa_1" data-name="Capa 1" xmlns="http://www.w3.org/2000/svg" viewBox="0 0 84.89 84.53"><path d="M9.41,84.13C4,78.72,2.35,72.7,5.35,66c2.88-6.4,8.3-9,15.34-8.83l.57-2.26c-1.13,0-2,0-3,0-3.54-.07-6.13-2.83-5.34-7.38.08-.46.7-.91,1.18-1.19a2.31,2.31,0,0,1,1.29-.12c2,.22,3.64.11,4.08-2.4.1-.61.79-1.15,1.29-1.66,3-3,6.09-6,9-9.12,2.15-2.26,4.52-3.82,7.93-3.42.24-2.27.91-4.34,2.87-5.5a8.73,8.73,0,0,1,3.83-1.23,6.3,6.3,0,0,1,6.25,4.65c.94,3.21-.21,5.65-4.08,8.33l4.11,3.68L63.18,27.27c-.23-.26-.56-.67-.92-1l-13.94-14c-2.56-2.57-4.32-2.58-6.86,0q-16.89,17-33.79,33.93c-.9.9-1.9,2.36-3.25.94s0-2.37,1-3.31q6.92-6.93,13.81-13.88c.42-.42.82-.86,1.33-1.4-2.51-2.51-4.92-5-7.38-7.37-.76-.74-1.51-.39-2.16.27L7.13,25.22c-.82.83-1.77,1.32-2.7.34s-.42-1.9.41-2.72c1.33-1.31,2.61-2.67,4-3.95a4.55,4.55,0,0,1,6.86.06c2.4,2.33,4.73,4.71,7.6,7.58a8,8,0,0,1,1-1.68q7.46-7.55,15-15c3.74-3.74,7.61-3.73,11.35,0L65.79,24.9c.33-.27.69-.59,1.06-.89a4.84,4.84,0,0,1,6.73,0c3.26,3.1,6.39,6.33,9.56,9.52.79.81,1,1.76.11,2.6s-1.72.45-2.47-.29q-4.23-4.26-8.48-8.51c-1.8-1.8-2.37-1.81-4.18,0L54.89,40.66c-.34.35-.65.72-1.36,1.49,1.76,0,3.09-.08,4.4,0a4.77,4.77,0,0,1,4.43,4.16,4.83,4.83,0,0,1-3,5.28,2.83,2.83,0,0,1-1.74.29c-.62-.22-1.43-.8-1.52-1.33s.61-1.2,1-1.76c.13-.17.61-.06.75-.23.45-.54,1.17-1.2,1.1-1.71s-.89-1.18-1.5-1.36a12.69,12.69,0,0,0-3,0l1,11.73c1,0,1.68,0,2.32,0a15.13,15.13,0,0,1,15.4,12.59c1.14,8-3.51,15.19-11,17.11a8,8,0,0,1-2,.24c-6.14,0-12.28,0-18.43,0-1,0-1.93-.1-1.9-1.41s.78-1.61,1.86-1.61c2.23,0,4.46,0,6.57,0-1.63-2.56-3.23-5-5.08-7.93H33.58c-.14.36-.36.91-.56,1.46-1.87,5.3-7.8,9.88-13.65,9.53-4.49-.27-9-.07-13.49,0-1,0-1.91-.08-1.87-1.43s.81-1.58,1.86-1.59ZM53.59,61.66c-5.71,2.22-8.5,9.14-6.22,14.94a11.75,11.75,0,1,0,21.82-8.72c-2-5.06-8.24-8.6-12.31-7,.11.46.21.93.34,1.4q1.31,4.66,2.6,9.33c.3,1.07-.07,2-1.12,2.15-.63.06-1.4-.68-2-1.19-.28-.25-.27-.81-.39-1.24C55.43,68.16,54.52,65,53.59,61.66Zm-33.68-.91c-4-.82-8.75,1.63-11.06,5.55a11.84,11.84,0,0,0,1.28,13.78A11.7,11.7,0,0,0,23.46,83.2c4-1.65,7.08-5.8,6.84-9.24-3.6,0-7.21,0-10.82,0-1.71,0-2.29-.71-2-2.37.14-.86.37-1.71.57-2.56C18.66,66.26,19.28,63.51,19.91,60.75ZM51.05,46.38l.63-.45a9.46,9.46,0,0,0-1.37-2.29c-3.39-3.12-6.85-6.16-10.29-9.21-2.4-2.13-4.7-2.1-7,.13-2.58,2.54-5.12,5.12-7.66,7.69a9.93,9.93,0,0,0-.78,1c1.79.5,3.44.9,5,1.42A1.92,1.92,0,0,0,32,44.14c1.53-1.65,3.15-3.21,4.74-4.8,1.83-1.83,2.1-1.86,4.14-.38l4.52,3.29Zm-28.79-.29a4.33,4.33,0,0,0,2.23,5.12c2.34,1.41,4.7,2.82,7.11,4.1A4.33,4.33,0,0,1,34,58.57c.58,3,1.34,5.95,2,8.88h3.36c-.49-3-1.05-5.87-1.39-8.73-.58-4.9-4.24-7.66-7.66-10.19C28.2,47,25,46.85,22.26,46.09Zm29.17,5.52C51,50.3,43.21,44.33,39.29,42l-5.44,5.33c1.37,1.25,2.8,2.58,4.27,3.88a1.42,1.42,0,0,0,.86.37C43.08,51.61,47.17,51.61,51.43,51.61ZM43,68.48l.59-.09c3.08-6,3.09-5.92,8.4-9.85.36-.27.42-1.26.29-1.83S51.59,55,51.2,55c-3.49-.14-7-.08-10.55-.08C41.44,59.57,42.21,64,43,68.48ZM30.42,70.59c-.33-4.11-3.59-8.15-7.27-9.09l-2.09,9.15h8.13C29.57,70.65,29.94,70.61,30.42,70.59Zm17.31-41.2a3.31,3.31,0,0,0-3.28-3.23,3.27,3.27,0,1,0,.07,6.53A3.3,3.3,0,0,0,47.73,29.39ZM31.64,64c-.41-5-2.68-7.68-7.14-8.57.21,1-1.33,2.13.26,2.86A17.59,17.59,0,0,1,31.64,64Zm5,8.8h6.31c-1.11-2-3-2.44-6.31-1.69ZM16.32,49.72c.39,1.75,1.09,2.11,3.38,1.73C19.2,49.33,19,49.25,16.32,49.72Z" transform="translate(-3.86 -2.9)" style="fill:#f7f7f7"/><path d="M75.28,19.62c-2.19,0-4.38,0-6.57,0-2.75,0-4.69-1.31-5.39-3.49-.75-2.34.07-4.37,2.37-6.08a2.81,2.81,0,0,0,.88-1.27,8.36,8.36,0,0,1,15.6-1,2.38,2.38,0,0,0,1.39,1c3,.75,4.7,2.93,4.49,5.8a5.33,5.33,0,0,1-5.38,4.94c-1.26.06-2.52,0-3.78,0H75.28Zm.16-3.31c2.4,0,4.81.05,7.22,0a2,2,0,0,0,2.08-2.39,2,2,0,0,0-2.55-1.63c-1.62.44-2.34-.17-2.68-1.7-.64-2.85-2.57-4.45-5.12-4.37s-4.28,1.85-4.9,4.67a2.81,2.81,0,0,1-1.36,1.78c-1.07.46-1.91.92-1.67,2.21s1.32,1.45,2.41,1.45Z" transform="translate(-3.86 -2.9)" style="fill:#f7f7f7"/><path d="M35.23,87.43c-1.41-.19-2.11-.71-1.89-1.66.14-.62.94-1.08,1.44-1.61.56.54,1.37,1,1.58,1.66C36.48,86.19,35.64,86.88,35.23,87.43Z" transform="translate(-3.86 -2.9)" style="fill:#f7f7f7"/><path d="M88.76,39.2c-1.05.78-1.66,1.58-2.2,1.54A2.25,2.25,0,0,1,85,39.35a1.29,1.29,0,0,1,1.48-1.65C87.1,37.77,87.67,38.45,88.76,39.2Z" transform="translate(-3.86 -2.9)" style="fill:#f7f7f7"/></svg>